<?xml version="1.0" standalone="no"?>
<!DOCTYPE svg PUBLIC "-//W3C//DTD SVG 20010904//EN"
 "http://www.w3.org/TR/2001/REC-SVG-20010904/DTD/svg10.dtd">
<svg version="1.0" xmlns="http://www.w3.org/2000/svg"
 width="2752.000000pt" height="1835.000000pt" viewBox="0 0 2752.000000 1835.000000"
 preserveAspectRatio="xMidYMid meet">
<metadata>
Created by potrace 1.16, written by Peter Selinger 2001-2019
</metadata>
<g transform="translate(0.000000,1835.000000) scale(0.100000,-0.100000)"
fill="#000000" stroke="none">
<path d="M7 18343 c-4 -3 -7 -4130 -7 -9170 l0 -9163 13760 0 13760 0 0 9170
0 9170 -13753 0 c-7565 0 -13757 -3 -13760 -7z m11518 -4522 c156 -23 327 -62
433 -97 566 -190 954 -609 1100 -1190 63 -248 67 -301 67 -829 0 -477 0 -480
-22 -522 -27 -49 -68 -80 -130 -99 -62 -19 -1128 -21 -1201 -2 -58 14 -122 76
-140 134 -8 29 -12 132 -12 335 0 428 -15 552 -84 694 -44 89 -112 157 -201
201 -151 73 -258 84 -835 84 -564 0 -665 -11 -816 -85 -119 -58 -191 -151
-241 -310 l-28 -90 0 -2045 0 -2045 28 -90 c16 -49 40 -110 54 -135 87 -149
231 -224 473 -250 123 -13 957 -13 1080 0 256 27 406 112 486 275 69 142 84
266 84 696 0 195 4 308 11 330 18 51 55 97 102 122 42 22 43 22 616 25 496 2
581 1 627 -13 30 -9 54 -17 54 -19 0 -1 -408 -709 -906 -1572 -498 -863 -1061
-1839 -1252 -2169 -190 -330 -350 -604 -355 -610 -7 -7 -8 -7 -5 0 13 25 688
1602 688 1608 0 3 -368 7 -817 10 -775 3 -825 5 -950 25 -265 42 -423 91 -628
192 -494 244 -786 673 -888 1305 l-22 140 0 2165 c0 2060 1 2171 19 2295 54
376 167 661 361 910 283 363 733 581 1309 634 145 14 1845 7 1941 -8z m4281
-838 l-343 -801 136 -4 c115 -3 142 -7 178 -26 50 -26 96 -80 111 -130 6 -20
270 -1351 587 -2957 316 -1606 580 -2944 586 -2972 l10 -53 50 0 c33 0 49 4
49 13 0 7 155 1350 344 2984 371 3199 346 3012 413 3075 68 65 37 63 807 66
754 3 765 2 831 -50 37 -29 65 -93 65 -151 0 -62 -1294 -7258 -1316 -7316 -10
-25 -35 -64 -57 -88 -71 -77 -23 -74 -1063 -71 l-919 3 -41 22 c-52 28 -97 79
-118 134 -9 24 -255 1288 -546 2809 -292 1521 -535 2791 -542 2823 -9 50 -14
57 -34 57 -13 0 -25 -7 -28 -17 -3 -10 -249 -1276 -547 -2813 -298 -1537 -550
-2818 -560 -2846 -28 -75 -79 -129 -145 -154 -56 -20 -64 -20 -978 -18 l-921
3 -52 27 c-58 31 -96 74 -117 136 -8 22 -53 259 -101 525 l-86 484 578 1001
c318 551 580 1002 583 1002 3 0 48 -357 98 -792 51 -436 95 -806 98 -821 5
-26 9 -28 47 -25 l41 3 310 1605 311 1605 1309 2268 c720 1247 1311 2266 1312
2264 2 -2 -151 -364 -340 -804z"/>
</g>
</svg>
